<?xml version="1.0" encoding="UTF-8" standalone="no"?>
<svg xmlns="http://www.w3.org/2000/svg" baseProfile="tiny" height="22" version="1.2" viewBox="0 0 22 22" width="22">
  <defs>
    <linearGradient gradientUnits="objectBoundingBox" id="linearGradient1" spreadMethod="pad" x1="0%" x2="0%" y1="0%"
                    y2="100%">
      <stop offset="0%" stop-color="#d3d3d3"/>
      <stop offset="100%" stop-color="#ffffff"/>
    </linearGradient>
  </defs>
  <g id="drawing1">
    <g>
      <g id="content">
        <rect fill="url(#linearGradient1)" height="14" id="rectangle2" width="14" x="4" y="4"/>
        <path d="M16,6 16,16 6,16 6,6 Z M4,4 4,18 18,18 18,4 Z"/>
        <ellipse cx="13.75" cy="8.25" fill="#ffffff" id="ellipse1" rx="1.75" ry="1.75"/>
        <path
          d="M13.75,7.5 C14.164213562373092,7.5,14.5,7.835786437626905,14.5,8.25 S14.164213562373092,9,13.75,9 13,8.664213562373092,13,8.25 13.335786437626908,7.5,13.75,7.5 Z M13.75,6.5 C12.783501687796111,6.5,12,7.283501687796112,12,8.25 S12.783501687796111,10,13.75,10 15.5,9.216498312203889,15.5,8.25 14.716498312203889,6.5,13.75,6.5 Z"
          fill="#000000"/>
        <polyline fill="none" id="polyline2" points="5,16 8,9 11,13 14,12 17,16" stroke="#000000"/>
        <rect fill="none" height="14" id="rectangle6" width="14" x="4" y="4"/>
        <path d="M16,6 16,16 6,16 6,6 Z M4,4 4,18 18,18 18,4 Z" fill="#000000"/>
      </g>
    </g>
  </g>
</svg>
