<?xml version="1.0" encoding="UTF-8" standalone="no"?>
<svg xmlns="http://www.w3.org/2000/svg" baseProfile="tiny" height="22" version="1.2" viewBox="0 0 22 22" width="22">
  <defs/>
  <g id="drawing1">
    <g>
      <g id="content">
        <line fill="none" id="line7" stroke="#008b8b" x1="18.5" x2="18.5" y1="4" y2="19"/>
        <polygon fill="#000000" id="polygon3" points="55,47 60,58 56.5,57 56.5,62 53.5,62 53.5,57 50,58"
                 stroke="#ffffff"
                 transform="translate(-44,-44), matrix(0.9238795325112868,-0.38268343236508956,0.38268343236508956,0.9238795325112868,-12.669621352018158,47.19615425821479)"/>
        <polygon fill="#808080" id="polygon8"
                 points="22,10 27,14 27,12 30,12 30,15 28,15 32,20 36,15 34,15 34,12 37,12 37,14 42,10 37,6 37,8 34,8 34,5 36,5 32,0 28,5 30,5 30,8 27,8 27,6"/>
        <path
          d="M32,1.6007810593582115 33.91937515251343,4 33,4 33,5 33,8 33,9 38,9 38,8.080624847486572 40.39921894064179,10 38,11.91937515251343 38,11 33,11 33,12 33,15 33,16 33.91937515251343,16 32,18.399218940641788 30.08062484748657,16 31,16 31,15 31,12 31,11 26,11 26,11.91937515251343 23.600781059358212,10 26,8.080624847486572 26,9 31,9 31,8 31,5 31,4 30.08062484748657,4 32,1.6007810593582115 Z M32,0 28,5 30,5 30,8 27,8 27,6 22,10 27,14 27,12 30,12 30,15 28,15 32,20 36,15 34,15 34,12 37,12 37,14 42,10 37,6 37,8 34,8 34,5 36,5 32,0 Z"
          fill="#808080"/>
        <path
          d="M12.44970703,10.33496094 12.13427734,12.99755859 9.38818359,12.99755859 9.72216797,10.33496094 Z M8.78515625,4.54589844 8.27490234,8.70214844 5.92773438,8.70214844 5.92773438,10.33496094 8.07080078,10.33496094 7.73681641,12.99755859 5.38964844,12.99755859 5.38964844,14.59326172 7.50488281,14.59326172 6.97607422,18.8515625 8.62744141,19.06494141 9.18408203,14.63037109 11.93945312,14.63037109 11.41064453,18.8515625 13.04345703,19.06494141 13.59082031,14.63037109 15.85449219,14.63037109 15.85449219,12.99755859 13.79492188,12.99755859 14.12890625,10.33496094 16.38330078,10.33496094 16.38330078,8.70214844 14.30517578,8.70214844 14.796875,4.75927734 13.17333984,4.54589844 12.65380859,8.70214844 9.91699219,8.70214844 10.40869141,4.75927734 8.78515625,4.54589844 Z"
          fill="#008b8b" id="combinedpath4"/>
      </g>
    </g>
  </g>
</svg>
