<?xml version="1.0" encoding="UTF-8" standalone="no"?>
<svg xmlns="http://www.w3.org/2000/svg" baseProfile="tiny" height="22" version="1.2" viewBox="0 0 22 22" width="22">
  <defs/>
  <g id="drawing1">
    <g>
      <g id="content">
        <polyline fill="none" id="polyline1" points="10,3 4,6 9,16 16,17 18,7 13,9" stroke="#000000"
                  stroke-linecap="square" stroke-width="2"/>
        <polygon fill="#808080" id="polygon8"
                 points="22,32 27,36 27,34 30,34 30,37 28,37 32,42 36,37 34,37 34,34 37,34 37,36 42,32 37,28 37,30 34,30 34,27 36,27 32,22 28,27 30,27 30,30 27,30 27,28"/>
        <path
          d="M32,23.600781059358212 33.91937515251343,26 33,26 33,27 33,30 33,31 38,31 38,30.08062484748657 40.39921894064179,32 38,33.91937515251343 38,33 33,33 33,34 33,37 33,38 33.91937515251343,38 32,40.39921894064179 30.080624847486572,38 31,38 31,37 31,34 31,33 26,33 26,33.91937515251343 23.600781059358212,32 26.000000000000004,30.08062484748657 26,30.08062484748657 26,31 31,31 31,30 31,27 31,26 30.080624847486572,26 32,23.600781059358212 Z M32,22 28,27 30,27 30,30 27,30 27,28 22,32 27,36 27,34 30,34 30,37 28,37 32,42 36,37 34,37 34,34 37,34 37,36 42,32 37,28 37,30 34,30 34,27 36,27 32,22 Z"
          fill="#808080"/>
      </g>
    </g>
  </g>
</svg>
