<?xml version="1.0" encoding="UTF-8" standalone="no"?>
<svg xmlns="http://www.w3.org/2000/svg" baseProfile="tiny" height="22" version="1.2" viewBox="0 0 22 22" width="22">
  <defs/>
  <g id="drawing1">
    <g>
      <g id="content">
        <polygon fill="#ffffff" id="polygon1" points="10,3 4,6 9,16 16,17 18,7 12,9" stroke="#000000"
                 stroke-linecap="square" stroke-width="2"/>
        <polygon fill="#808080" id="polygon8"
                 points="0,32 5,36 5,34 8,34 8,37 6,37 10,42 14,37 12,37 12,34 15,34 15,36 20,32 15,28 15,30 12,30 12,27 14,27 10,22 6,27 8,27 8,30 5,30 5,28"/>
        <path
          d="M10,23.600781059358212 11.91937515251343,26 11,26 11,27 11,30 11,31 16,31 16,30.080624847486575 16.000000000000007,30.080624847486575 18.399218940641788,32 16,33.91937515251343 16,33 11,33 11,34 11,37 11,38 11.91937515251343,38 10.000000000000005,40.39921894064178 9.999999999999995,40.39921894064178 8.08062484748657,38 9,38 9,37 9,34 9,33 4,33 4,33.91937515251343 4.000000000000009,33.91937515251344 4,33.91937515251344 4,33.91937515251343 1.600781059358213,32 1.6007810593582104,32 4.000000000000002,30.08062484748657 4,30.08062484748657 4,31 9,31 9,30 9,27 9,26 8.080624847486572,26 10,23.600781059358212 Z M10,22 6,27 8,27 8,30 5,30 5,28 0,32 5,36 5,34 8,34 8,37 6,37 10,42 14,37 12,37 12,34 15,34 15,36 20,32 15,28 15,30 12,30 12,27 14,27 10,22 Z"
          fill="#808080"/>
      </g>
    </g>
  </g>
</svg>
