<?xml version="1.0" encoding="UTF-8" standalone="no"?>
<svg xmlns="http://www.w3.org/2000/svg" baseProfile="tiny" height="22" version="1.2" viewBox="0 0 22 22" width="22">
  <defs/>
  <g id="drawing1">
    <g>
      <g id="content">
        <polygon fill="#ffffff" id="polygon2" points="5,3 13,3 17,7.266666666666666 17,19 5,19"/>
        <path d="M12.133535975067337,5 15,8.05756162659484 15,17 7,17 7,5 Z M5,3 5,19 17,19 17,7.266666666666666 13,3 Z"
              fill="#008b8b"/>
        <polyline fill="none" id="polyline3" points="12.5,4 12.5,8 16.5,8" stroke="#008b8b"/>
        <polygon fill="#000000" id="polygon6" points="55,47 60,58 56.5,57 56.5,62 53.5,62 53.5,57 50,58"
                 stroke="#ffffff"
                 transform="translate(0,-44), matrix(0.9238795325112868,-0.38268343236508956,0.38268343236508956,0.9238795325112868,-61.669621352018154,47.19615425821479)"/>
      </g>
    </g>
  </g>
</svg>
