<?xml version="1.0" encoding="UTF-8" standalone="no"?>
<svg xmlns="http://www.w3.org/2000/svg" baseProfile="tiny" height="22" version="1.2" viewBox="0 0 22 22" width="22">
  <defs/>
  <g id="drawing1">
    <g>
      <g id="content">
        <polygon fill="#000000" id="polygon14" points="76.75,50 80.5,58.5 78,58 78,62 75.5,62 75.5,58 73,58.5"
                 stroke="#ffffff"
                 transform="translate(-110,-44), matrix(0.9238795325112868,-0.38268343236508956,0.38268343236508956,0.9238795325112868,12.91197366731372,37.63369961338856)"/>
        <rect fill="#000000" height="15" id="rectangle14" width="1" x="18" y="4"/>
        <path d="M19,4 19,19 18,19 18,4 Z M17,3 17,4 17,19 17,20 20,20 20,19 20,4 20,3 Z" fill="#ffffff"/>
        <path
          d="M10.125,8.61865234 12.24951172,13.48925781 7.8984375,13.48925781 10.125,8.61865234 Z M10.16210938,3.77587891 3.07421875,19 5.40283203,19 6.99853516,15.52099609 13.13085938,15.52099609 14.63378906,19 16.99951172,19 10.16210938,3.77587891 Z"
          fill="#808080" id="combinedpath1"/>
      </g>
    </g>
  </g>
</svg>
