<?xml version="1.0" encoding="UTF-8" standalone="no"?>
<svg xmlns="http://www.w3.org/2000/svg" baseProfile="tiny" height="22" version="1.2" viewBox="0 0 22 22" width="22">
  <defs/>
  <g id="drawing1">
    <g>
      <g id="content">
        <rect fill="none" height="10" id="rectangle24" width="14" x="2" y="6"/>
        <path d="M15,7 15,15 3,15 3,7 Z M2,6 2,16 16,16 16,6 Z" fill="#808080"/>
        <polygon fill="#000000" id="polygon3" points="55,47 60,58 56.5,57 56.5,62 53.5,62 53.5,57 50,58"
                 stroke="#ffffff"
                 transform="translate(-66,-66), matrix(0.9238795325112868,-0.38268343236508956,0.38268343236508956,0.9238795325112868,-12.669621352018158,47.19615425821479)"/>
        <g id="group2"
           transform="translate(-66,-66), matrix(0.9238795325112867,0.3826834323650898,-0.3826834323650898,0.9238795325112867,34.4535839081225,-21.18252353445002)">
          <rect fill="none" height="10" id="rectangle8" transform="translate(0,2)" width="14" x="68" y="68"/>
          <path d="M80,70 80,76 70,76 70,70 Z M68,68 68,78 82,78 82,68 Z" fill="#808080"/>
          <line fill="none" id="line12" stroke="#000000" x1="75" x2="75" y1="70" y2="69"/>
          <ellipse cx="75" cy="67" fill="#ffffff" id="ellipse4" rx="2" ry="2" stroke="#000000"/>
        </g>
        <polygon fill="#000000" id="polygon5" points="76.75,50 80.5,58.5 78,58 78,62 75.5,62 75.5,58 73,58.5"
                 stroke="#ffffff"
                 transform="translate(-66,-66), matrix(0.9238795325112868,-0.38268343236508956,0.38268343236508956,0.9238795325112868,-9.08802633268628,59.63369961338856)"/>
        <polygon fill="#000000" id="polygon4" points="76.75,50 80.5,58.5 78,58 78,62 75.5,62 75.5,58 73,58.5"
                 stroke="#ffffff"
                 transform="translate(-66,-66), matrix(0.9238795325112868,-0.38268343236508956,0.38268343236508956,0.9238795325112868,-9.08802633268628,37.63369961338856)"/>
      </g>
    </g>
  </g>
</svg>
